<?xml version="1.0" encoding="utf-8"?>
<!-- Generator: Adobe Illustrator 25.0.0, SVG Export Plug-In . SVG Version: 6.00 Build 0)  -->
<svg version="1.1" id="图层_1" xmlns="http://www.w3.org/2000/svg" xmlns:xlink="http://www.w3.org/1999/xlink" x="0px" y="0px"
	 viewBox="0 0 394.6 80.6" style="enable-background:new 0 0 394.6 80.6;" xml:space="preserve">
<style type="text/css">
	.st0{fill:#0066C6;}
	.st1{fill:#FF6023;}
</style>
<g>
	<g>
		<path class="st0" d="M111.1,4.3c-5.4,0-10.4,0.8-14.9,2.5c-4.5,1.7-8.4,4.1-11.7,7.2c-3.3,3.1-5.9,6.9-7.7,11.4
			c-1.8,4.4-2.8,9.5-2.8,14.9c0,5.5,0.9,10.5,2.8,14.9c1.8,4.4,4.4,8.3,7.7,11.4c3.3,3.1,7.2,5.5,11.7,7.2c4.5,1.7,9.5,2.5,14.9,2.5
			c5.4,0,10.3-0.8,14.9-2.5c4.5-1.7,8.4-4.1,11.7-7.2c3.3-3.1,5.9-6.9,7.7-11.4c1.8-4.4,2.8-9.5,2.8-14.9c0-5.5-0.9-10.5-2.8-14.9
			c-1.8-4.4-4.4-8.3-7.7-11.4l0,0c-3.3-3.1-7.2-5.5-11.7-7.2C121.5,5.2,116.5,4.3,111.1,4.3z M111.1,63.4c-3.3,0-6.4-0.6-9.1-1.7
			c-2.7-1.1-5.1-2.8-7-4.8c-1.9-2-3.5-4.5-4.5-7.3c-1-2.8-1.6-5.9-1.6-9.2c0-3.3,0.5-6.4,1.6-9.2c1-2.8,2.6-5.3,4.5-7.3
			c1.9-2,4.3-3.7,7-4.8c2.7-1.1,5.8-1.7,9.1-1.7c3.3,0,6.4,0.6,9.1,1.7c2.7,1.1,5.1,2.8,7,4.8c1.9,2.1,3.5,4.5,4.5,7.3
			c1,2.8,1.6,5.9,1.6,9.2c0,3.3-0.5,6.4-1.6,9.2l0,0c-1,2.8-2.6,5.2-4.5,7.3c-2,2.1-4.3,3.7-7,4.8C117.6,62.8,114.5,63.4,111.1,63.4
			z"/>
	</g>
	<g>
		<path class="st0" d="M191.8,4.3c-5.4,0-10.4,0.8-14.9,2.5c-4.5,1.7-8.4,4.1-11.7,7.2c-3.3,3.1-5.9,6.9-7.7,11.4
			c-1.8,4.4-2.8,9.5-2.8,14.9c0,5.5,0.9,10.5,2.8,14.9c1.8,4.4,4.4,8.3,7.7,11.4c3.3,3.1,7.2,5.5,11.7,7.2c4.5,1.7,9.5,2.5,14.9,2.5
			c5.3,0,10.3-0.8,14.9-2.5c4.5-1.7,8.4-4.1,11.7-7.2c3.3-3.1,5.9-6.9,7.7-11.4c1.8-4.4,2.8-9.5,2.8-14.9c0-5.5-0.9-10.5-2.8-14.9
			c-1.8-4.4-4.4-8.3-7.7-11.4c-3.3-3.1-7.2-5.5-11.7-7.2C202.1,5.2,197.1,4.3,191.8,4.3z M191.8,63.4c-3.3,0-6.4-0.6-9.1-1.7
			c-2.7-1.1-5.1-2.8-7-4.8c-2-2-3.5-4.5-4.5-7.3c-1-2.8-1.6-5.9-1.6-9.2c0-3.3,0.5-6.4,1.6-9.2c1-2.8,2.6-5.3,4.5-7.3
			c1.9-2,4.3-3.7,7-4.8c2.7-1.1,5.8-1.7,9.1-1.7c3.3,0,6.4,0.6,9.1,1.7c2.7,1.1,5.1,2.8,7,4.8c1.9,2,3.5,4.5,4.5,7.3
			c1,2.8,1.6,5.9,1.6,9.2c0,3.3-0.5,6.4-1.6,9.2h0c-1,2.8-2.6,5.2-4.5,7.3c-2,2.1-4.3,3.7-7,4.8C198.2,62.8,195.1,63.4,191.8,63.4z"
			/>
	</g>
	<g>
		<path class="st0" d="M63.8,13.5c0.4-0.5,0.3-1.2-0.1-1.6l-0.4-0.4c-0.1,0-0.1-0.1-0.2-0.1c-3-2.3-6.4-4-10.1-5.1
			c-4.6-1.3-9.8-2-15.3-2c-5.4,0-10.4,0.8-14.9,2.5c-4.5,1.7-8.4,4.1-11.7,7.2c-3.3,3.1-5.9,6.9-7.7,11.4c-1.8,4.4-2.8,9.5-2.8,15
			c0,5.5,0.9,10.5,2.8,15c1.8,4.4,4.4,8.3,7.7,11.4c3.3,3.1,7.2,5.5,11.7,7.2c4.5,1.7,9.5,2.5,14.9,2.5c5.1,0,10.1-0.5,15-1.6
			c4.6-1,9.2-2.6,13.5-4.8c0.2-0.1,0.2-0.2,0.2-0.4V36.7c0-1.3-1-2.3-2.3-2.3H42.6c-1.3,0-2.3,1-2.3,2.3v8.4c0,1.3,1,2.3,2.3,2.3
			h6.7c1.9,0,3.5,1.6,3.5,3.5v7.8c0,0.6-0.3,1.2-0.9,1.5c-1.4,0.7-3.2,1.4-5.3,2c-2.5,0.8-5.5,1.2-8.8,1.2c-3.3,0-6.4-0.6-9.1-1.7
			c-2.7-1.1-5.1-2.8-7-4.8c-2-2.1-3.5-4.5-4.5-7.3c-1-2.8-1.6-5.9-1.6-9.2c0-3.3,0.5-6.4,1.6-9.2c1-2.8,2.6-5.3,4.5-7.3
			c2-2.1,4.3-3.7,7-4.8c2.7-1.1,5.8-1.7,9.1-1.7c4,0,7.4,0.6,10.1,1.7c2.1,0.9,4.1,2.1,5.9,3.7l0.1,0.1c0.5,0.4,1.2,0.4,1.6-0.1
			l0.1-0.1l7.6-8.3L63.8,13.5z"/>
	</g>
	<g>
		<path class="st0" d="M237.6,6c-0.6,0-1.1,0.5-1.1,1.1v66.3c0,0.6,0.5,1.1,1.1,1.1h23.4c5.1,0,10.1-0.8,14.7-2.2
			c4.6-1.5,8.8-3.7,12.3-6.5c3.5-2.9,6.4-6.4,8.5-10.6c2.1-4.2,3.1-9.1,3.1-14.7c0-6.2-1.1-11.6-3.2-16c-2.2-4.4-5.1-8-8.7-10.7
			c-3.7-2.7-8-4.7-12.9-6C269.8,6.6,264.5,6,259,6H237.6z M259.3,61.6H253c-1.3,0-2.3-1-2.3-2.3v-38c0-1.3,1-2.3,2.3-2.3h7.4
			c3.3,0,6.4,0.4,9.4,1.3c3,0.8,5.6,2.1,7.8,3.8c2.2,1.7,4,3.9,5.3,6.5c1.3,2.6,2,5.7,2,9.2c0,4-0.7,7.5-2,10.2
			c-1.3,2.8-3.1,5.1-5.4,6.8c-2.3,1.7-5,3-8.1,3.7C266.2,61.2,262.9,61.6,259.3,61.6z"/>
	</g>
	<g>
		<g>
			<path class="st1" d="M314.3,4.2c-2.2,0-4.1,0.8-5.6,2.3c-1.6,1.6-2.3,3.4-2.3,5.6c0,2.2,0.8,4.1,2.3,5.6c1.6,1.6,3.4,2.3,5.6,2.3
				c2.2,0,4.1-0.8,5.6-2.3c1.6-1.6,2.3-3.4,2.3-5.6c0-2.2-0.8-4.1-2.3-5.6C318.3,5,316.5,4.2,314.3,4.2z"/>
		</g>
		<g>
			<path class="st0" d="M308.6,27c-0.6,0-1.1,0.5-1.1,1.1v45.3c0,0.6,0.5,1.1,1.1,1.1h11.3c0.6,0,1.1-0.5,1.1-1.1V28.1
				c0-0.6-0.5-1.1-1.1-1.1H308.6z"/>
		</g>
	</g>
	<g>
		<path class="st0" d="M394,73.4l-24.3-33.7c-0.4-0.5-0.4-1.1,0-1.6l22-30.6l0.3-0.4c0.3-0.5,0-1.2-0.6-1.2h-0.6h-13.2h-1
			c-0.2,0-0.5,0.1-0.6,0.3L375.5,7L362,26c-0.3,0.4-0.7,0.6-1.1,0.6c0,0,0,0,0,0c-0.4,0-0.9-0.2-1.1-0.6L346.1,7.1l-0.5-0.8
			c-0.1-0.2-0.4-0.3-0.6-0.3h-1.2h-12.5h-0.9c-0.6,0-1,0.7-0.6,1.2l0.6,0.9l22.2,30.7c0.4,0.5,0.4,1.1,0,1.6l-23.4,32.8l-0.2,0.3
			c-0.3,0.5,0,1.2,0.6,1.2h0h13h1.3c0.2,0,0.5-0.1,0.6-0.3l0.5-0.8l15.2-21c0.3-0.4,0.7-0.6,1.1-0.6c0,0,0,0,0,0
			c0.4,0,0.9,0.2,1.1,0.6L378,73.9l0.3,0.4c0.1,0.2,0.4,0.3,0.6,0.3h0.7h13.7h0.2C394,74.6,394.4,73.9,394,73.4L394,73.4z"/>
	</g>
</g>
</svg>
